<?xml version="1.0" encoding="UTF-8" standalone="no"?><svg viewBox="0 0 883.2 351.64" xmlns="http://www.w3.org/2000/svg" width="600" height="400"><path d="M360.01 157.43c-10.76-26.56-40.95-37.38-65.84-22.24-17.57 10.69-26.5 29.44-29.51 49.29-.59 3.91-.61 7.85-1.06 11.75-.08.7-.29 1.41-.98.73l-12.73-17.98c10.78-10.42 21.55-23.68 20.6-39.64 9.38 4.9 7.22-8.17 5.97-13.61-2.22-9.68-8.18-13.63-11.29-21.22-1.95-4.76-2.77-12.11-4.29-17.38-2.61-9.04-6.2-18.33-11.04-26.4l-.04-.68c28.96-12.06 20-56.82-12.58-54.2-11.57.93-20.36 10.34-25.1 20.2-23.01-11.04-50.56-12.79-75.09-5.92-4.23-12.76-15.94-21.56-29.7-19.07-22.2 4.02-25.54 32.8-10.73 46.91-5.93 6.41-10.25 14.16-13.86 22.08-2.79 6.12-4.6 12.7-8.08 18.52-4.11 6.88-10.1 10.16-14.69 16.34-2.1 2.83-8.7 11.66-2.74 13.02-4.1 11.46-2.33 24.62 3.44 35.2-44.34-5.92-73.31 40.55-51.8 79.14 3.29 5.91 7.83 11.27 13.16 15.41 1.64 1.28 6.54 3.98 7.34 4.97.91 1.13 1.99 4.61 3.02 6.34 11.12 18.69 45.44 23.54 63.25 12.35-5.74 11.47-3.97 25.38 2.96 35.95-14.36-.92-30.81 8.7-32.46 23.94-.87 8.03 2.66 10.55 10.11 11.46 19.47 2.38 54.84 1.35 74.07-2.64 2.59-.54 8.11-2.7 10.08-2.72 3.48-.03 8.76 2.15 12.53 2.01-.01 3.65 3.3 5.94 6.45 7.09 12 4.41 49.04 2.36 62.73.69 13.06-1.59 35.91-5 31.95-23.28l.58-.81c8.64-6.19 17.79-11.62 26.13-18.22 38.94-30.8 79.79-96.7 59.25-147.39zM126.61 24.34L120 27.97c-2.29-3.11-4.93-6.24-9.24-5.25-2.87.66-4.38 4.49-2.18 6.65 1.16 1.14 4.55 1.02 5.28 3.08l-10.04 7.38c-18.51-20.17 11.93-42.53 22.8-15.48zM88.16 232.59c-4.09 5.59-14.2 14.14-21.08 15.41-.53.1-.87.28-1.24-.29l-3.7-5.92c36.81-9.35 36.95-64.79-1.45-71.7-28.34-5.1-49.44 22.76-39.18 49.03 2.68 6.86 8.44 14.5 15.01 17.75-1.52 1.75-4.14 2.81-4.44 5.41-33.23-20.02-23.82-73.95 15.59-79.72 38.85-5.69 63.47 38.65 40.49 70.04zm176.13 75.16c-1.52 2.2-7.61 8.16-7.02 10.49.41 1.61 2.61 3.63 2.84 6.1.31 3.37-1.79 6.41-4.15 8.57-3.45 3.16-7.45 3.53-11.98 4.28-12.2 2.03-24.69 2.26-37.04 2.11.84-4.31 2.1-9.02 5.41-12.07-5.63-.64-9.35 7.25-10.41 12.01l-9.79-.43c-1.32-1.34 2.66-12.75 5.91-12.81.15-.81-1.25-.56-1.73-.5-5.15.71-9.15 8.03-9.6 12.82-3.72-.97-6.13-.8-5.79-5.51.52-7.25 6.34-11.7 12.71-13.92 9.84-3.43 22.02-2.84 31.99-.27.23-1.06-.52-1.12-1.14-1.56-4.57-3.31-12.88-6.75-18.45-7.66-1.47-.24-4.57.25-5.29-.62-5.89-15.26-.41-32.12 13.1-41.09 9.64-6.4 20.68-7.92 31.97-5.71-1.63-2.44-4.58-3.07-7.14-3.94-.51-.17-.92.37-.74-.74.07-.47 3.46-4.64 4.16-5.7 3.79-5.76 6.66-17.92 4.74-24.86-.19-.67-.06-1.53-1-1.7-1.31 4.84-4.08 13.26-7.46 16.92-4.98 5.4-17 11.9-23.93 14.49-7.11 2.66-21.79 5.43-26.7 11.23-1.74 2.06-6.28 11.29-10.37 7.34-3.71-3.58 1.9-12.19 2.45-16-6.61 1.45-10.57 9.85-9.36 16.25-7.5-2.63-5.92-11.53-3.3-17.34.46-1.02 3.3-5.2 3.29-5.57-.02-.76-.82-.53-1.34-.38-2.67.76-4.81 3.73-6.73 5.6l-3.73 6.36c-1.18-13.81 8.57-22.39 20.2-27.33 7.91-3.35 17.7-4.38 22.09-12.88.73-1.41 2.53-5.98 2.53-7.32v-9.11c-2.66 3.54-4.5 7.68-7.4 11.07-7.21 8.42-15.73 7.95-24.62 12.81-10.24 5.59-20.01 16.2-20 28.49 0 5.02 1.79 12.43 7.2 14.13.22.85-1 .22-1.01.74-.02 1.2 5.59 6.3 6.75 7.05 3.41 2.19 5.17.93 8.19 1.57.17.04 1.8 1.89 2.65 2.36 4.45 2.46 8.63 1.96 12.75-.9.08-2.95-1.71-4.12 1.69-5.91-.5 1.68 1.42 2.84 1.44 4.17.02 1.13-1.4 4.07-1.7 5.65-1.41 7.32-1.04 15.58 1.25 22.66-4.93 1.68-10.05 4.12-13.15 8.4-18.24 1.64-45.65-3.64-57.2-19.05-12.87-17.17-16.76-41.44-14.85-62.46.63-6.89 5.86-35.89 9.81-40.3.45-.5 1.25-.36 1.72-.85.64-.65 3.57-4.28 4.09-4.42 2.86-.78 6.32.42 9-.73-6.19-3.47-12.82-6.13-19.04-9.52-4.26-2.32-11.47-6.2-15.18-8.95-2.15-1.59-3.84-4.48-5.9-6.41-7.31-6.88-15.28-9.38-20.66-18.25-6.41-10.57-8.83-24.88-2.68-36.09 2.94-5.36 7.79-8.9 11.51-13.61 9.69-12.27 11.67-28.94 21.51-42.52 27.49-37.95 80.69-38.49 118.61-16.59 2.54-8.42 6.8-18.6 15.43-22.25 16.99-7.18 30.35 13.62 19.3 27.18-4.18 5.13-11.26 8.03-17.73 8.88-.71.09-1.45-.46-1.24.71 8.92 11.09 15.31 25.84 18.38 39.75.76 3.44 1.02 9.32 2.21 12.07 1.43 3.29 6.56 7.96 8.78 11.42 2.38 3.73 4.54 8.44 5.1 12.87-2.43-1.31-5-2.63-7.88-2.46-.24.18.49.63.49.73v10.34c0 .5-3.74 7.86-4.35 8.95-9.38 16.84-25.37 28.33-42.6 36.2-2.86 1.31-6.18 2.75-9.2 3.36-.13 1.27 0 .79.72 1l3.47.97h12.56l-2.95.98c8.27-.11 17.78.89 25.3 4.5 2.41 1.16 4.35 3.13 6.95 3.89 22.87 33.36 38.89 71.75 13.27 108.81zm-159.8-116.69l3.93 1.72-2.45 4.19-1.48-5.91z" fill="#004b29"/><path d="M203.49 207.31c-2.66 3.54-4.5 7.68-7.4 11.07-7.21 8.42-15.73 7.95-24.62 12.81-10.24 5.59-20.01 16.2-20 28.49 0 5.02 1.79 12.43 7.2 14.13.22.85-1 .22-1.01.74-.02 1.2 5.59 6.3 6.75 7.05 3.41 2.19 5.17.93 8.19 1.57.17.04 1.8 1.89 2.65 2.36 4.45 2.46 8.63 1.96 12.75-.9.08-2.95-1.71-4.12 1.69-5.91-.5 1.68 1.42 2.84 1.44 4.17.02 1.13-1.4 4.07-1.7 5.65-1.41 7.32-1.04 15.58 1.25 22.66-4.93 1.68-10.05 4.12-13.15 8.4-18.24 1.64-45.65-3.64-57.2-19.05-12.87-17.17-16.76-41.44-14.85-62.46.63-6.89 5.86-35.89 9.81-40.3.45-.5 1.25-.36 1.72-.85.64-.65 3.57-4.28 4.09-4.42 2.86-.78 6.32.42 9-.73-6.19-3.47-12.82-6.13-19.04-9.52-4.26-2.32-11.47-6.2-15.18-8.95-2.15-1.59-3.84-4.48-5.9-6.41-7.31-6.88-15.28-9.38-20.66-18.25-6.41-10.57-8.83-24.88-2.68-36.09 2.94-5.36 7.79-8.9 11.51-13.61 9.69-12.27 11.67-28.94 21.51-42.52 27.49-37.95 80.69-38.49 118.61-16.59 2.54-8.42 6.8-18.6 15.43-22.25 16.99-7.18 30.35 13.62 19.3 27.18-4.18 5.13-11.26 8.03-17.73 8.88-.71.09-1.45-.46-1.24.71 8.92 11.09 15.31 25.84 18.38 39.75.76 3.44 1.02 9.32 2.21 12.07 1.43 3.29 6.56 7.96 8.78 11.42 2.38 3.73 4.54 8.44 5.1 12.87-2.43-1.31-5-2.63-7.88-2.46-.24.18.49.63.49.73v10.34c0 .5-3.74 7.86-4.35 8.95-9.38 16.84-25.37 28.33-42.6 36.2-2.86 1.31-6.18 2.75-9.2 3.36-.13 1.27 0 .79.72 1l3.47.97h12.56l-2.95.98c8.27-.11 17.78.89 25.3 4.5 2.41 1.16 4.35 3.13 6.95 3.89 22.87 33.36 38.89 71.75 13.27 108.81-1.52 2.2-7.61 8.16-7.02 10.49.41 1.61 2.61 3.63 2.84 6.1.31 3.37-1.79 6.41-4.15 8.57-3.45 3.16-7.45 3.53-11.98 4.28-12.2 2.03-24.69 2.26-37.04 2.11.84-4.31 2.1-9.02 5.41-12.07-5.63-.64-9.35 7.25-10.41 12.01l-9.79-.43c-1.32-1.34 2.66-12.75 5.91-12.81.15-.81-1.25-.56-1.73-.5-5.15.71-9.15 8.03-9.6 12.82-3.72-.97-6.13-.8-5.79-5.51.52-7.25 6.34-11.7 12.71-13.92 9.84-3.43 22.02-2.84 31.99-.27.23-1.06-.52-1.12-1.14-1.56-4.57-3.31-12.88-6.75-18.45-7.66-1.47-.24-4.57.25-5.29-.62-5.89-15.26-.41-32.12 13.1-41.09 9.64-6.4 20.68-7.92 31.97-5.71-1.63-2.44-4.58-3.07-7.14-3.94-.51-.17-.92.37-.74-.74.07-.47 3.46-4.64 4.16-5.7 3.79-5.76 6.66-17.92 4.74-24.86-.19-.67-.06-1.53-1-1.7-1.31 4.84-4.08 13.26-7.46 16.92-4.98 5.4-17 11.9-23.93 14.49-7.11 2.66-21.79 5.43-26.7 11.23-1.74 2.06-6.28 11.29-10.37 7.34-3.71-3.58 1.9-12.19 2.45-16-6.61 1.45-10.57 9.85-9.36 16.25-7.5-2.63-5.92-11.53-3.3-17.34.46-1.02 3.3-5.2 3.29-5.57-.02-.76-.82-.53-1.34-.38-2.67.76-4.81 3.73-6.73 5.6l-3.73 6.36c-1.18-13.81 8.57-22.39 20.2-27.33 7.91-3.35 17.7-4.38 22.09-12.88.73-1.41 2.53-5.98 2.53-7.32v-9.11zm42.19-171.09c2.66-2.63 0-6.69-3.06-7.19-5.44-.88-10.04 3.14-12.62 7.52s-5.2 10.84 1.06 13.13c.6-4.13 3.55-8.82 7.29-10.69 2.14-1.07 5.91-1.38 7.32-2.78zm-129.5 12.61c-4.83.76-12.36 6.22-13.44 11.18-1.82 8.32 5.47 1.09 7.99-.38 2.28-1.32 5.09-2.78 7.79-2.56 2.27.18 5.69 2.52 6.94-1.44 1.62-5.17-5.04-7.47-9.27-6.8zm68.72 9.62c1.02.91 6.23-.45 8.01-.42 6.72.13 14.67 4.69 18.82 9.81l1.62-.16c2.49-1.26-.02-6.53-1.08-8.3-4.62-7.73-17.78-13.58-25.7-7.65-1.69 1.27-3.43 5.14-1.68 6.71zm-60.39 17.52c-11.06-11.46-26.19-.43-29.15 12.61-1.85 8.17-2.15 21.65 7.65 24.64-6.83-6.72-7.08-19.55-2.72-27.59 6.57-12.11 22.77-12.26 24.38 2.96-14.76-12.57-26.37 10.91-16.73 22.4 4.06 4.84 7.91 3.07 13.28 1.74-3.89 12.23 7.05 21.11 17.02 25.61.36 5.12-1.45 8.23-6.19 10.09-7.86 3.09-14.67.51-19.61-5.99-1.18-1.56-3.58-6.95-4.26-7.55-1.57-1.4-2.45-.44-2.66 1.27-.91 7.36 4.37 15.84 10.94 19.01 1.63.79 4.87 1.21 5.98 2.39 1.31 1.41 4.03 8.83 5.43 11.32 7.39 13.17 18.12 21.26 33.99 19.19 20.42-2.66 30.88-27.81 35.23-45.31l4.57 2.4c4.41-4.16-2.51-10.71-6.86-11.71-2.38-.55-10.27.1-10.96 2.75-.17 2.38 3.67 2.38 5.36 2.62-6.51 12.9-23.17 16.78-36.08 11.7-5.51-2.17-8.89-5.69-9.72-11.7 16.47-1.56 35.09-23.51 12.44-32.89-9.6-3.98-21.18-3.41-30.17 1.85-.27-.32 1.41-2.72 1.71-3.46 3.15-7.68 3.2-22.09-2.88-28.38zm79.97 43.66c13.53-2.54 14.41-18.39 11.3-29.27-2.81-9.8-12.32-16.9-22.63-14.32-13.12 3.29-18.55 17.07-17.72 29.55.52 7.84 2.63 10.67 9.34 14.31.62.34.97 1.02 1.98.72-.24-.79-1.3-.93-1.99-1.69-9.36-10.32-7.32-32.6 7.14-37.24 18.75-6.02 26.75 20.39 17.22 32.98-1.36 1.79-3.4 3.06-4.64 4.96zm-5.54-30.4c-13.02.49-15.79 24.46-5.07 30.42 5.13 2.86 9.21 1.09 12.56-3.23 6.42-8.25 5.69-27.68-7.49-27.19zm-25 105.28c-5.1 1.63-11.12 4.16-16.51 4.42-3.58.17-7.08-.88-10.58-1.23 8.33 8.11 21.06 6.74 27.09-3.19z" fill="#68cb3d"/><path d="M62.14,241.79c36.81-9.35,36.95-64.79-1.45-71.7-28.34-5.1-49.44,22.76-39.18,49.03,2.68,6.86,8.44,14.5,15.01,17.75-1.52,1.75-4.14,2.81-4.44,5.41-33.23-20.02-23.82-73.95,15.59-79.72,38.85-5.69,63.47,38.65,40.49,70.04-4.09,5.59-14.2,14.14-21.08,15.41-.53.1-.87.28-1.24-.29l-3.7-5.92Z" fill="#b1eb54"/><path d="M108.57 29.36c1.16 1.14 4.55 1.02 5.28 3.08l-10.04 7.38c-18.51-20.17 11.93-42.53 22.8-15.48L120 27.97c-2.29-3.11-4.93-6.24-9.24-5.25-2.87.66-4.38 4.49-2.18 6.65z" fill="#68cb3d"/><path d="M105.98 196.97l-1.49-5.91 3.93 1.72-2.44 4.19z" fill="#fff"/><path d="M124.51 75.97c6.07 6.29 6.03 20.7 2.88 28.38-.3.74-1.99 3.13-1.71 3.46 8.99-5.27 20.57-5.83 30.17-1.85 22.65 9.38 4.03 31.33-12.44 32.89.83 6.01 4.21 9.53 9.72 11.7 12.92 5.08 29.57 1.21 36.08-11.7-1.69-.24-5.53-.24-5.36-2.62.69-2.65 8.58-3.3 10.96-2.75 4.35 1 11.27 7.55 6.86 11.71l-4.57-2.4c-4.35 17.5-14.8 42.65-35.23 45.31-15.87 2.07-26.6-6.02-33.99-19.19-1.4-2.49-4.12-9.91-5.43-11.32-1.11-1.19-4.34-1.6-5.98-2.39-6.57-3.17-11.85-11.66-10.94-19.01.21-1.71 1.09-2.67 2.66-1.27.68.61 3.08 6 4.26 7.55 4.94 6.5 11.75 9.08 19.61 5.99 4.74-1.86 6.54-4.98 6.19-10.09-9.96-4.49-20.91-13.38-17.02-25.61-5.37 1.33-9.22 3.1-13.28-1.74-9.64-11.49 1.97-34.97 16.73-22.4-1.61-15.23-17.81-15.08-24.38-2.96-4.36 8.04-4.12 20.86 2.72 27.59-9.8-2.99-9.51-16.47-7.65-24.64 2.96-13.05 18.09-24.08 29.15-12.61zm-6.86 14.21c-3.68 1.09-2.42 8.55 2.25 7.2 3.8-1.1 2.58-8.64-2.25-7.2zm26.74 76.24l-4.19-12.3c-2.66 2.56-6.7 1.89-10.1 1.96.24 8.62 3.74 16.08 13.11 17.19 3.5.41 10.22.04 12.83-2.58 1.73-1.74 4.68-9.88 2.64-11.42-1.76-1.33-11.78-1.78-14.29-4.67.41 3.15.8 6.86.79 10.02 0 .41-.1 1.95-.79 1.8zm54.55-77.19c13.18-.49 13.91 18.94 7.49 27.19-3.36 4.32-7.43 6.09-12.56 3.23-10.72-5.97-7.95-29.94 5.07-30.42zm1.96 5.36c-4.04.73-3.73 7.9.79 7.66 4.96-.26 3.94-8.51-.79-7.66zm3.58 25.04c1.24-1.9 3.28-3.17 4.64-4.96 9.53-12.59 1.53-39-17.22-32.98-14.46 4.64-16.5 26.92-7.14 37.24.69.76 1.75.9 1.99 1.69-1.01.3-1.36-.38-1.98-.72-6.7-3.63-8.81-6.47-9.34-14.31-.83-12.48 4.6-26.26 17.72-29.55 10.32-2.59 19.83 4.52 22.63 14.32 3.11 10.88 2.23 26.73-11.3 29.27zM184.9 58.45c-1.75-1.57-.02-5.44 1.68-6.71 7.92-5.93 21.08-.08 25.7 7.65 1.05 1.76 3.56 7.04 1.08 8.3l-1.62.16c-4.15-5.13-12.1-9.68-18.82-9.81-1.78-.03-6.99 1.33-8.01.42zm60.78-22.23c-1.41 1.4-5.18 1.7-7.32 2.78-3.73 1.88-6.69 6.56-7.29 10.69-6.27-2.29-3.66-8.73-1.06-13.13s7.17-8.4 12.62-7.52c3.06.5 5.71 4.55 3.06 7.19zm-129.5 12.61c4.23-.67 10.9 1.63 9.27 6.8-1.24 3.96-4.67 1.62-6.94 1.44-2.7-.22-5.51 1.24-7.79 2.56-2.53 1.47-9.81 8.7-7.99.38 1.08-4.96 8.61-10.42 13.44-11.18zm57.76 145.68c-6.03 9.94-18.76 11.3-27.09 3.19 3.5.35 7 1.4 10.58 1.23 5.39-.26 11.4-2.79 16.51-4.42z" fill="#004b29"/><path d="M144.39 166.42c.7.14.79-1.4.79-1.8 0-3.15-.39-6.86-.79-10.02 2.51 2.89 12.53 3.34 14.29 4.67 2.03 1.53-.91 9.68-2.64 11.42-2.61 2.61-9.33 2.99-12.83 2.58-9.36-1.11-12.87-8.57-13.11-17.19 3.4-.07 7.44.6 10.1-1.96l4.19 12.3zm-26.74-76.24c4.83-1.43 6.05 6.11 2.25 7.2-4.66 1.35-5.93-6.11-2.25-7.2zm83.25 4.41c4.73-.85 5.75 7.39.79 7.66-4.52.24-4.83-6.93-.79-7.66z" fill="#fff"/><path d="M99.17 279.89s6.94 39.32 46.51 51.65c-24.16 4.63-57.05 2.83-57.05 2.83s-3.34-9.51 9.77-12.59c-10.79-2.57-16.19 4.03-17.22 12.94-7.71-.6-10.02 0-10.02 0s3.08-27.07 43.43-16.53c-14.65-19.53-16.51-28.27-15.42-38.29z" fill="#68cb3d"/><g fill="#5daa3a"><path d="M352.7 185.04c-5.96 3.02-12.95 6.94-20.48 11.89-2.07 1.36-4.22 2.83-6.43 4.42-3.89-8.06-8.08-15.35-12.01-21.55l-3.36-5.17c8.83-7.54 18.15-12.97 27.92-16.28 2.48-.84 4.91-1.51 7.26-2.03 3.94 5.47 6.51 12.45 6.96 20.75.15 2.68.19 5.34.14 7.97zM342 152.11l-5.11 1.53c-10.27 3.46-20.04 9.11-29.27 16.9-5.41-7.75-10.39-13.96-13.98-18.18 14.96-13.79 35.87-12.65 48.36-.25zm-38.1 21.72c-6.5 5.99-12.72 13.09-18.65 21.26-2.79-3.74-5.45-7.05-7.87-9.91 2.24-12.7 6.88-22.36 12.81-29.26 3.56 4.22 8.46 10.35 13.72 17.91zm17.85 30.48c-6.33 4.77-13.06 10.41-19.78 17-2.6-4.84-5.23-9.26-7.76-13.24-1.99-3.12-3.97-6.05-5.92-8.79 5.86-8.24 12-15.36 18.41-21.34l2.92 4.49c3.97 6.27 8.23 13.68 12.13 21.88zm16.66 33.29l.13.66.52-1.02-.66.36z"/><path d="M352.44 190.73c-1.17 16.36-6 31.88-13.37 46.5h0l-.66.36c-2.31-11.23-6.13-21.96-10.51-31.7 2.37-1.72 4.67-3.3 6.88-4.76 6.35-4.19 12.35-7.63 17.65-10.4zm-18.52 49.5h0c-5.54 3.4-11.62 7.7-18.24 13.15-3.25-10.1-7.2-19.32-11.32-27.49 6.6-6.58 13.23-12.22 19.49-16.99 4.28 9.67 7.95 20.28 10.07 31.34zm.51 5.54c-4.36 7.49-9.37 14.73-14.85 21.71-.7-3.05-1.49-6.04-2.33-8.96h0c6.3-5.29 12.04-9.46 17.18-12.75zm-18.82 26.62C306.8 283 296.94 293 286.63 302.34c3.06-5.74 4.71-12.37 5.35-19.39 7.58-8.26 14.63-15.15 21.14-20.89.92 3.35 1.76 6.8 2.49 10.33zm-4.02-15.58h0c-6.02 5.22-12.45 11.34-19.28 18.55-.02-10.35-1.82-21.17-4.21-31 4.08-5.33 8.31-10.25 12.6-14.76 4.01 8.11 7.81 17.23 10.89 27.2zm-29.34-57.46l-6.12 9.54-.09-.21c-.27-6.06-.1-11.67.42-16.84 1.85 2.28 3.79 4.79 5.79 7.52zm16.09 25.62c-3.98 4.13-7.94 8.59-11.79 13.41-2.76-9.99-5.91-18.51-8.04-23.83 2.22-3.82 4.49-7.46 6.8-10.92 1.57 2.25 3.16 4.62 4.74 7.11 2.7 4.24 5.52 9 8.28 14.24z"/><path d="M352.7 185.04l-.26 5.69.26-5.69zm-17.94 60.16c.02.11.03.22.04.33l-.38.24.33-.57zm4.31-7.96l-.52 1.02-.13-.66.66-.36z"/></g><path d="M53.15 228.97c-.99 0-1.8-.33-2.44-.99s-.96-1.48-.96-2.46v-2.41c-1.84-.16-3.44-.45-4.8-.86s-2.49-.83-3.37-1.26c-.85-.39-1.45-.94-1.8-1.65-.34-.71-.48-1.44-.39-2.22.08-.77.35-1.47.81-2.09s1.06-1.04 1.8-1.26c.74-.21 1.6-.11 2.59.32.66.33 1.64.69 2.96 1.08 1.31.39 2.97.59 4.97.59s3.46-.29 4.29-.86c.82-.57 1.23-1.26 1.23-2.04 0-.69-.28-1.27-.84-1.75s-1.58-.88-3.05-1.21l-5.57-1.18c-6.04-1.35-9.06-4.61-9.06-9.8 0-2.76.93-5.1 2.78-7.02s4.34-3.18 7.46-3.77v-2.66c0-.99.32-1.81.96-2.46.64-.66 1.45-.99 2.44-.99s1.81.33 2.46.99c.66.66.99 1.48.99 2.46v2.46c1.08.16 2.19.41 3.32.74s2.14.77 3.03 1.33c.95.53 1.55 1.24 1.8 2.14s.2 1.77-.12 2.61c-.33.84-.91 1.45-1.75 1.82-.84.38-1.9.3-3.18-.22-.79-.33-1.64-.6-2.56-.81s-2.1-.32-3.55-.32c-1.74 0-3.08.31-4.01.94-.94.62-1.4 1.43-1.4 2.41 0 .66.27 1.21.81 1.65s1.53.83 2.98 1.16l5.62 1.23c6.11 1.38 9.16 4.58 9.16 9.6 0 2.79-.94 5.12-2.81 6.99s-4.32 3.09-7.34 3.65v2.66c0 .99-.33 1.81-.99 2.46-.66.66-1.48.99-2.46.99z" fill="#fff7ab"/><path d="M97.02 237.89s-2.51 16.38-.96 26.4c-18.89 8.48-32.76 10.6-50.11 0s-9.83-20.04-1.16-17.73c-1.73 8.87-.19 13.49 3.85 13.11s-4.63-6.17.96-10.02 5.2 3.47 11.37 7.52 12.33 3.47 9.83.39c9.64-1.54 26.21-19.66 26.21-19.66z" fill="#68cb3d"/><path d="M394.13 232.27c-3.94 0-6.97-1.09-9.09-3.25-2.12-2.17-3.18-5.22-3.18-9.16v-82.01c0-4.04 1.13-7.12 3.4-9.24s5.47-3.18 9.6-3.18c3.35 0 6.06.67 8.13 1.99 2.07 1.33 3.94 3.52 5.62 6.58l29.11 52.46L466.83 134c1.77-3.05 3.67-5.25 5.69-6.58s4.75-1.99 8.2-1.99c3.84 0 6.85 1.06 9.01 3.18 2.17 2.12 3.25 5.2 3.25 9.24v82.01c0 3.94-1.03 7-3.1 9.16-2.07 2.17-5.12 3.25-9.16 3.25s-6.97-1.09-9.09-3.25c-2.12-2.17-3.18-5.22-3.18-9.16v-45.51l-20.69 36.05c-1.38 2.17-2.83 3.79-4.36 4.88s-3.57 1.63-6.13 1.63-4.48-.54-6.06-1.63c-1.58-1.08-3.01-2.71-4.29-4.88l-20.54-35.46v44.92c0 3.94-1.03 7-3.1 9.16-2.07 2.17-5.12 3.25-9.16 3.25zm220.61 0c-4.24 0-7.46-1.13-9.68-3.4s-3.32-5.56-3.32-9.9v-48.91c0-8.77 4.29-13.15 12.86-13.15 7.78 0 12.02 3.79 12.71 11.38 2.46-3.74 5.74-6.62 9.83-8.64s8.64-3.03 13.67-3.03c8.67 0 15.09 2.56 19.28 7.68s6.28 13 6.28 23.64v31.03c0 4.34-1.13 7.63-3.4 9.9s-5.52 3.4-9.75 3.4-7.49-1.13-9.75-3.4c-2.27-2.27-3.4-5.56-3.4-9.9v-30c0-4.43-.76-7.58-2.29-9.46-1.53-1.87-3.77-2.81-6.72-2.81-3.94 0-7.09 1.26-9.46 3.77-2.36 2.51-3.55 5.89-3.55 10.12v28.37c0 8.87-4.43 13.3-13.3 13.3zm107.27.29c-8.87 0-16.53-1.55-22.98-4.65s-11.4-7.51-14.85-13.22-5.17-12.46-5.17-20.24 1.65-13.94 4.95-19.65 7.83-10.17 13.59-13.37 12.34-4.8 19.73-4.8 13.62 1.53 18.99 4.58 9.51 7.41 12.41 13.08 4.36 12.29 4.36 19.87c0 3.84-2.27 5.76-6.8 5.76h-42.11c.89 4.73 2.86 8.13 5.91 10.2s7.29 3.1 12.71 3.1c2.07 0 4.53-.24 7.39-.74 2.86-.49 5.56-1.28 8.13-2.36 3.15-1.18 5.81-1.21 7.98-.07 2.17 1.13 3.62 2.86 4.36 5.17.74 2.32.64 4.68-.3 7.09-.94 2.42-2.78 4.26-5.54 5.54-3.45 1.68-7.12 2.88-11.01 3.62s-7.81 1.11-11.75 1.11zm-3.55-58.95c-3.94 0-7.17 1.18-9.68 3.55-2.51 2.36-4.11 5.81-4.8 10.34h27.48c-.3-4.63-1.55-8.1-3.77-10.42-2.22-2.31-5.3-3.47-9.24-3.47zm56.89 85.26c-3.05 0-5.54-.79-7.46-2.36-1.92-1.58-3.08-3.62-3.47-6.13s.05-5.25 1.33-8.2l7.54-16.25-22.9-52.31c-1.97-4.43-1.97-8.32 0-11.67s5.81-5.02 11.53-5.02c3.05 0 5.56.72 7.54 2.14 1.97 1.43 3.74 4.21 5.32 8.35l12.41 32.06 13-32.21c1.57-4.04 3.37-6.77 5.39-8.2s4.75-2.14 8.2-2.14c4.33 0 7.41 1.68 9.24 5.02 1.82 3.35 1.75 7.24-.22 11.67l-33.54 75.36c-1.77 3.84-3.72 6.45-5.84 7.83s-4.8 2.07-8.05 2.07z" fill="#004b29"/><circle cx="548.25" cy="186.48" r="49.7" fill="#68cb3d"/><circle cx="548.25" cy="186.48" r="40.8" fill="#004b29"/><path d="M548.55 213.17c-1.18 0-2.16-.39-2.93-1.18s-1.15-1.77-1.15-2.96v-2.9c-2.21-.2-4.13-.54-5.76-1.03-1.64-.49-2.98-.99-4.05-1.51-1.03-.47-1.74-1.13-2.16-1.98-.41-.85-.57-1.73-.47-2.66.1-.92.42-1.76.97-2.51s1.27-1.25 2.16-1.51 1.92-.13 3.1.38c.79.39 1.97.83 3.55 1.3s3.57.71 5.97.71 4.16-.34 5.14-1.03 1.48-1.51 1.48-2.45c0-.83-.34-1.53-1-2.1-.67-.57-1.89-1.05-3.66-1.45l-6.68-1.42c-7.25-1.62-10.88-5.54-10.88-11.76 0-3.31 1.11-6.12 3.34-8.42s5.21-3.81 8.95-4.52v-3.19c0-1.18.38-2.17 1.15-2.96s1.74-1.18 2.93-1.18 2.17.39 2.96 1.18 1.18 1.77 1.18 2.96v2.96c1.3.2 2.63.49 3.99.89 1.36.39 2.57.93 3.63 1.6 1.14.63 1.86 1.49 2.16 2.57s.25 2.13-.15 3.13c-.39 1-1.09 1.73-2.1 2.19-1 .45-2.28.36-3.81-.27-.95-.39-1.97-.72-3.07-.98s-2.52-.38-4.26-.38c-2.09 0-3.69.38-4.82 1.12-1.12.75-1.68 1.71-1.68 2.9 0 .79.33 1.45.98 1.98s1.84 1 3.58 1.39l6.74 1.48c7.33 1.66 10.99 5.5 10.99 11.53 0 3.35-1.12 6.15-3.37 8.39-2.25 2.25-5.18 3.7-8.81 4.37v3.19c0 1.18-.39 2.17-1.18 2.96s-1.77 1.18-2.96 1.18z" fill="#fff7ab"/><g fill="#004b29"><path d="M395.76 349.38c-9.46 0-14.19-4.68-14.19-14.04v-76.1c0-9.36 4.73-14.04 14.19-14.04h36.05c11.23 0 19.92 2.44 26.08 7.31 6.15 4.88 9.24 11.4 9.24 19.58 0 5.42-1.36 10.15-4.06 14.19-2.71 4.04-6.48 7.04-11.3 9.01 5.81 1.77 10.29 4.75 13.45 8.94 3.15 4.19 4.73 9.38 4.73 15.59 0 9.16-3.28 16.38-9.83 21.65s-15.49 7.91-26.82 7.91h-37.53zm11.82-62.8h19.36c4.92 0 8.54-.89 10.86-2.66 2.31-1.77 3.47-4.48 3.47-8.13s-1.16-6.33-3.47-8.05c-2.32-1.72-5.94-2.59-10.86-2.59h-19.36v21.43zm0 42.85h22.02c5.02 0 8.69-.96 11.01-2.88 2.31-1.92 3.47-4.8 3.47-8.64s-1.16-6.7-3.47-8.57c-2.32-1.87-5.98-2.81-11.01-2.81h-22.02v22.9zM514.26 351c-8.87 0-16.53-1.55-22.98-4.65s-11.4-7.51-14.85-13.22-5.17-12.46-5.17-20.24 1.65-13.94 4.95-19.65 7.83-10.17 13.59-13.37 12.34-4.8 19.73-4.8 13.62 1.53 18.99 4.58 9.51 7.41 12.41 13.08 4.36 12.29 4.36 19.87c0 3.84-2.27 5.76-6.8 5.76h-42.11c.89 4.73 2.86 8.13 5.91 10.2s7.29 3.1 12.71 3.1c2.07 0 4.53-.24 7.39-.74 2.86-.49 5.56-1.28 8.13-2.36 3.15-1.18 5.81-1.21 7.98-.07 2.17 1.13 3.62 2.86 4.36 5.17.74 2.32.64 4.68-.3 7.09-.94 2.42-2.78 4.26-5.54 5.54-3.45 1.68-7.12 2.88-11.01 3.62s-7.81 1.11-11.75 1.11zm-3.54-58.96c-3.94 0-7.17 1.18-9.68 3.55-2.51 2.36-4.11 5.81-4.8 10.34h27.48c-.3-4.63-1.55-8.1-3.77-10.42-2.22-2.31-5.3-3.47-9.24-3.47zM573.07 351c-5.62 0-10.57-1.03-14.85-3.1s-7.64-4.9-10.05-8.5c-2.41-3.59-3.62-7.71-3.62-12.34 0-5.22 1.38-9.38 4.14-12.49 2.76-3.1 7.19-5.32 13.3-6.65s14.23-1.99 24.38-1.99h5.61v-2.07c0-3.55-.91-6.06-2.73-7.54s-4.95-2.22-9.38-2.22c-2.46 0-5.15.27-8.05.81-2.91.54-6.18 1.5-9.83 2.88-3.25 1.18-5.96 1.13-8.13-.15s-3.57-3.13-4.21-5.54-.39-4.83.74-7.24 3.32-4.21 6.58-5.39c4.73-1.67 9.09-2.83 13.08-3.47s7.66-.96 11.01-.96c12.12 0 21.1 2.61 26.97 7.83 5.86 5.22 8.79 13.45 8.79 24.68v29.85c0 8.87-4.04 13.3-12.12 13.3s-11.77-3.94-12.26-11.82c-1.38 3.74-3.75 6.7-7.09 8.87-3.35 2.17-7.44 3.25-12.26 3.25zm5.91-17.14c3.64 0 6.72-1.18 9.24-3.55 2.51-2.36 3.77-5.47 3.77-9.31v-2.66h-5.61c-5.81 0-10.07.62-12.78 1.85s-4.06 3.18-4.06 5.84c0 2.27.81 4.14 2.44 5.62s3.96 2.22 7.02 2.22zm75.36 16.85c-6.8 0-11.72-3.45-14.78-10.34l-21.13-48.32c-1.87-4.43-1.87-8.32 0-11.67s5.66-5.02 11.38-5.02c3.05 0 5.56.72 7.54 2.14 1.97 1.43 3.74 4.21 5.32 8.35l12.41 32.06 13.15-32.21c1.57-4.04 3.35-6.77 5.32-8.2s4.68-2.14 8.13-2.14c2.86 0 5.19.76 7.02 2.29 1.82 1.53 2.96 3.57 3.4 6.13s-.03 5.32-1.4 8.27l-21.57 48.47c-2.96 6.8-7.88 10.2-14.78 10.2zm76.69.29c-8.87 0-16.53-1.55-22.98-4.65s-11.4-7.51-14.85-13.22-5.17-12.46-5.17-20.24 1.65-13.94 4.95-19.65 7.83-10.17 13.59-13.37 12.34-4.8 19.73-4.8 13.62 1.53 18.99 4.58 9.51 7.41 12.41 13.08 4.36 12.29 4.36 19.87c0 3.84-2.27 5.76-6.8 5.76h-42.11c.89 4.73 2.86 8.13 5.91 10.2s7.29 3.1 12.71 3.1c2.07 0 4.53-.24 7.39-.74 2.86-.49 5.56-1.28 8.13-2.36 3.15-1.18 5.81-1.21 7.98-.07 2.17 1.13 3.62 2.86 4.36 5.17.74 2.32.64 4.68-.3 7.09-.94 2.42-2.78 4.26-5.54 5.54-3.45 1.68-7.12 2.88-11.01 3.62s-7.81 1.11-11.75 1.11zm-3.55-58.96c-3.94 0-7.17 1.18-9.68 3.55-2.51 2.36-4.11 5.81-4.8 10.34h27.48c-.3-4.63-1.55-8.1-3.77-10.42-2.22-2.31-5.3-3.47-9.24-3.47zm50.54 58.67c-8.97 0-13.45-4.43-13.45-13.3V288.5c0-8.77 4.29-13.15 12.86-13.15 4.04 0 7.17 1.13 9.38 3.4 2.22 2.27 3.32 5.52 3.32 9.75v.44c1.67-4.23 4.38-7.58 8.13-10.05 3.74-2.46 8.18-3.74 13.3-3.84 2.86-.1 5 .62 6.43 2.14 1.43 1.53 2.19 4.36 2.29 8.5 0 3.55-.74 6.35-2.22 8.42s-4.29 3.3-8.42 3.69l-3.4.3c-5.22.49-9.01 1.95-11.38 4.36-2.36 2.42-3.55 5.98-3.55 10.71v24.23c0 8.87-4.43 13.3-13.3 13.3z"/><path d="M848.06 351c-4.43 0-8.87-.35-13.3-1.03-4.43-.69-8.47-1.82-12.12-3.4-3.05-1.18-5.05-2.9-5.98-5.17-.94-2.27-1.03-4.53-.3-6.8.74-2.27 2.09-3.99 4.06-5.17s4.33-1.28 7.09-.3c4.04 1.48 7.73 2.54 11.08 3.18s6.55.96 9.6.96c3.64 0 6.25-.52 7.83-1.55 1.57-1.03 2.36-2.39 2.36-4.06 0-1.48-.52-2.59-1.55-3.32s-2.49-1.3-4.36-1.7l-16.4-2.66c-6.11-.98-10.84-3.2-14.19-6.65s-5.02-7.93-5.02-13.45c0-5.12 1.43-9.53 4.29-13.22s6.85-6.55 11.97-8.57 10.98-3.03 17.58-3.03c4.43 0 8.47.35 12.12 1.03 3.64.69 7.19 1.82 10.64 3.4 2.66 1.09 4.36 2.76 5.1 5.02.74 2.27.69 4.51-.15 6.72-.84 2.22-2.27 3.89-4.29 5.02s-4.46 1.16-7.31.07c-3.25-1.28-6.13-2.22-8.64-2.81s-4.85-.89-7.02-.89c-4.04 0-6.9.57-8.57 1.7-1.68 1.13-2.51 2.49-2.51 4.06 0 2.66 1.82 4.29 5.47 4.88l16.4 2.81c6.3.99 11.16 3.13 14.56 6.43s5.1 7.76 5.1 13.37c0 7.98-3.05 14.16-9.16 18.54s-14.24 6.58-24.38 6.58z"/></g></svg>