<?xml version="1.0" encoding="UTF-8" standalone="no"?><svg width="600" height="400" fill="none" xmlns="http://www.w3.org/2000/svg" viewBox="0 0 100 100"><rect width="100" height="100" rx="16" fill="#fff"/><g clip-path="url(#A)"><path d="M82.5156 44.6683H24.2159c-1.1699 0-2.1143.9444-2.1143 2.1144v29.7419c0 1.1699.9444 2.1143 2.1143 2.1143h58.2997c1.1629 0 2.1144-.9444 2.1144-2.1143V46.7827c0-1.17-.9515-2.1144-2.1144-2.1144z" fill="#f29b30"/><path d="M65.1216 24.2085L59.2789 26.64 17.0906 44.2102l-5.7863 2.4104c-1.0783.451-1.58575 1.6844-1.1417 2.7627l2.4103 5.7863 6.6109 15.8788 2.4104 5.7863c.451 1.0783 1.6844 1.5857 2.7627 1.1417l5.7863-2.4103 42.1813-17.5703 5.8426-2.4315c1.0713-.444 1.5858-1.6844 1.1418-2.7628l-2.4104-5.7933-6.6108-15.8717-2.4104-5.7863c-.4511-1.0783-1.6915-1.5857-2.7627-1.1417h.007z" fill="#f3a84a"/><g fill="#b1e35f"><path d="M34.802 73.2544h-6.2726c-1.17 0-2.1144-.9445-2.1144-2.1144v-6.2726c4.6305 0 8.387 3.7565 8.387 8.387zm54.1413-8.387V71.14c0 1.1699-.9514 2.1144-2.1143 2.1144H80.5c0-4.6305 3.7495-8.387 8.3869-8.387h.0564zm0-23.4692v6.2725h-.0564c-4.6374 0-8.3869-3.7565-8.3869-8.3869h6.329c1.1629 0 2.1143.9444 2.1143 2.1144zm-31.2649 2.798c6.6673 0 12.0659 5.4057 12.0659 12.0729S64.3457 68.335 57.6784 68.335s-12.0729-5.3986-12.0729-12.0659 5.4057-12.0729 12.0729-12.0729z"/></g><path d="M57.8544 48.3402c.437 0 .7894.3454.7894.7894v.4017c1.0783.1269 1.9945.4722 2.8403 1.0078.296.1621.5497.437.5497.881 0 .5638-.4581 1.0079-1.0219 1.0079-.1833 0-.3665-.0564-.5498-.1621-.6413-.3806-1.2615-.6555-1.8818-.8035v3.5169c2.7839.6977 3.975 1.8113 3.975 3.7706s-1.5716 3.3477-3.8974 3.5662v1.0994c0 .437-.3454.7894-.7894.7894s-.8034-.3454-.8034-.7894v-1.1347c-1.3744-.148-2.6359-.6413-3.7495-1.4307-.3101-.2044-.4933-.4933-.4933-.881 0-.5638.4369-1.0078 1.0078-1.0078.2185 0 .437.0705.6061.2044.8599.6202 1.7056 1.0431 2.7064 1.2263v-3.6085c-2.6711-.6977-3.9186-1.7056-3.9186-3.7706 0-1.9593 1.5576-3.3125 3.8411-3.4957v-.3806c0-.4369.3665-.7893.8034-.7893l-.0141-.0071zm-.733 6.2373v-3.242c-1.1699.1128-1.7549.733-1.7549 1.5365s.3454 1.2474 1.7549 1.7055zm1.4519 2.5443v3.3336c1.1699-.1268 1.8113-.7118 1.8113-1.5928 0-.8034-.4017-1.2968-1.8113-1.7408z" fill="#402318"/><path d="M28.5294 39.2838h6.2726c0 4.6304-3.7565 8.3869-8.387 8.3869v-6.2725c0-1.17.9444-2.1144 2.1144-2.1144z" fill="#b1e35f"/><path d="M88.9435 47.6707v17.1968h-.0564c-4.6375 0-8.387 3.7565-8.387 8.3869H34.802c0-4.6304-3.7565-8.3869-8.387-8.3869V47.6707c4.6305 0 8.387-3.7565 8.387-8.3869h45.6981c0 4.6304 3.7495 8.3869 8.387 8.3869h.0564zm-19.1984 8.5984c0-6.6673-5.3986-12.0729-12.0659-12.0729s-12.0729 5.4056-12.0729 12.0729S51.012 68.335 57.6792 68.335s12.0659-5.3986 12.0659-12.0659z" fill="#64c753"/><g stroke="#402318" stroke-width="2.11435" stroke-linejoin="round"><path d="M88.9435 64.8675V71.14c0 1.17-.9515 2.1144-2.1144 2.1144H28.5294c-1.17 0-2.1144-.9444-2.1144-2.1144V41.3982c0-1.17.9444-2.1144 2.1144-2.1144h58.2997c1.1629 0 2.1144.9444 2.1144 2.1144v23.4693z"/><path d="M69.7453 56.2691c0 6.6673-5.3987 12.0659-12.0659 12.0659s-12.073-5.3986-12.073-12.0659 5.4057-12.0729 12.073-12.0729 12.0659 5.4057 12.0659 12.0729z"/><g stroke-linecap="round"><path d="M88.8869 47.6707c-4.6374 0-8.3869-3.7565-8.3869-8.3869m-54.085 8.3869c4.6305 0 8.387-3.7565 8.387-8.3869m-8.387 25.5836c4.6305 0 8.387 3.7565 8.387 8.387m54.0849-8.387c-4.6374 0-8.3869 3.7565-8.3869 8.387"/></g></g><g fill="#b1e35f"><path d="M32.5955 72.0279l-5.9061 2.1073c-1.0994.3947-2.3117-.1762-2.6993-1.2827l-2.1073-5.9061c4.3626-1.5576 9.1622.7189 10.7198 5.0815h-.0071zm48.1721-26.1051l2.1074 5.9061c.3946 1.0995-.1833 2.3117-1.2828 2.6993l-5.9624 2.1285c-1.5576-4.3626.7118-9.1622 5.0815-10.7198l.0563-.0211v.007zm-7.8937-22.1019l2.1073 5.9061-.0564.0211c-4.3696 1.5576-9.1621-.7189-10.7197-5.0815l5.9624-2.1284c1.0925-.3877 2.3117.1762 2.7064 1.2827zM44.3724 36.965c6.2796-2.2412 13.1795 1.036 15.4207 7.3157s-1.029 13.1794-7.3086 15.4206-13.1865-1.0219-15.4277-7.3015 1.0289-13.1865 7.3086-15.4278l.007-.007z"/></g><path d="M45.937 40.8132c.4158-.1481.8599.0634 1.0079.4792l.1339.3806c1.0571-.2396 2.0368-.2255 3.0094 0 .3312.0564.6625.2255.8105.6413.1903.5357-.0916 1.0995-.6273 1.2898-.1691.0634-.3594.0705-.5708.0282-.733-.148-1.4096-.1974-2.0439-.1269l1.184 3.3125c2.8544-.2819 4.3485.3735 5.011 2.213.6766 1.8959-.3524 3.686-2.4738 4.6727l.3665 1.0361c.148.4158-.0634.8598-.4792 1.0078s-.874-.0564-1.022-.4722l-.3805-1.0713c-1.3462.3242-2.6994.282-4.0173-.0845-.3594-.0846-.6343-.296-.7612-.6625-.1903-.5357.0776-1.0995.6132-1.2898.2044-.0705.437-.0775.6343-.0141 1.0219.296 1.9522.4088 2.9671.2467l-1.2122-3.3971c-2.7486.2397-4.2639-.2889-4.9546-2.2341-.6555-1.8466.3524-3.6438 2.4456-4.5882l-.1269-.3594c-.148-.4158.0775-.8669.4934-1.0149l-.0071.0071zm1.4025 6.1245l-1.0853-3.0517c-1.0643.5004-1.4096 1.2827-1.1418 2.0368.2608.726.7471 1.0572 2.2271 1.0149zm2.2201 1.91l1.1206 3.1363c1.0572-.5145 1.466-1.2827 1.17-2.1073-.2679-.7612-.8176-1.0854-2.2906-1.029z" fill="#402318"/><path d="M15.2651 42.1451l5.9061-2.1073c1.5575 4.3627-.7189 9.1622-5.0815 10.7198l-2.1073-5.9061c-.3947-1.0994.1762-2.3117 1.2827-2.6993v-.0071z" fill="#b1e35f"/><path d="M74.9876 29.7269l5.7793 16.1959-.0564.0211c-4.3697 1.5576-6.632 6.3572-5.0815 10.7198L32.5879 72.028c-1.5576-4.3626-6.3572-6.6391-10.7198-5.0815l-5.7792-16.196c4.3626-1.5575 6.632-6.3571 5.0815-10.7197l43.0411-15.3643c1.5576 4.3626 6.3501 6.6391 10.7198 5.0815l.0563-.0211zM59.7925 44.2806c-2.2412-6.2796-9.141-9.5568-15.4207-7.3156s-9.5498 9.1481-7.3086 15.4277 9.1481 9.5428 15.4277 7.3016 9.5499-9.1411 7.3087-15.4207l-.0071.007z" fill="#64c753"/><g stroke="#402318" stroke-width="2.11435" stroke-linejoin="round"><path d="M80.7675 45.9229l2.1073 5.9061c.3946 1.0994-.1833 2.3117-1.2827 2.6993l-5.9625 2.1284L32.5884 72.021l-5.906 2.1073c-1.0995.3947-2.3117-.1762-2.6994-1.2827l-2.1073-5.9061-5.7792-16.1959-2.1073-5.9061c-.3947-1.0994.1762-2.3117 1.2827-2.6993l5.9061-2.1073 43.0341-15.3643 5.9625-2.1284c1.0924-.3877 2.3116.1762 2.7063 1.2827l2.1073 5.9061 5.7793 16.1959z"/><path d="M59.7931 44.2807c2.2412 6.2796-1.029 13.1794-7.3086 15.4207s-13.1865-1.022-15.4277-7.3016 1.0289-13.1865 7.3086-15.4277 13.1794 1.036 15.4206 7.3156l.0071-.007z"/><g stroke-linecap="round"><path d="M74.9317 29.7481c-4.3697 1.5576-9.1622-.7189-10.7198-5.0815M16.0957 50.7505c4.3626-1.5575 6.632-6.3571 5.0815-10.7197m.6978 26.9156c4.3626-1.5576 9.1622.7189 10.7198 5.0815M80.7104 45.944c-4.3696 1.5575-6.632 6.3571-5.0815 10.7197"/></g></g></g><defs><clipPath id="A"><path fill="#fff" transform="translate(10 21.3611)" d="M0 0h80v57.277801513672H0z"/></clipPath></defs></svg>