<?xml version="1.0" encoding="UTF-8" standalone="no"?><svg viewBox="0 0 1000 1000" xmlns="http://www.w3.org/2000/svg" width="600" height="400"><rect x=".47" y="-.24" width="1000" height="1000" rx="500" fill="#fff"/><path d="M858.74 464.37c-21.86-53.93-83.13-75.89-133.68-45.15-35.68 21.7-53.8 59.76-59.92 100.08-1.2 7.93-1.23 15.94-2.16 23.86-.17 1.41-.58 2.86-1.99 1.48l-25.84-36.51c21.9-21.16 43.76-48.08 41.83-80.49 19.04 9.95 14.65-16.59 12.12-27.63-4.52-19.66-16.6-27.68-22.92-43.08-3.96-9.66-5.62-24.58-8.71-35.29-5.3-18.35-12.6-37.22-22.41-53.6l-.08-1.38c58.79-24.49 40.6-115.35-25.54-110.05-23.48 1.88-41.33 20.99-50.96 41.01-46.71-22.42-102.66-25.98-152.46-12.01-8.58-25.91-32.37-43.77-60.29-38.71-45.06 8.17-51.86 66.59-21.79 95.24-12.04 13.02-20.8 28.75-28.14 44.83-5.67 12.42-9.35 25.79-16.41 37.59-8.35 13.97-20.51 20.63-29.83 33.17-4.27 5.74-17.66 23.67-5.57 26.43-8.31 23.27-4.73 49.98 6.98 71.47-90.01-12.02-148.83 82.33-105.17 160.68 6.68 11.99 15.9 22.87 26.71 31.29 3.33 2.59 13.28 8.07 14.91 10.09 1.84 2.28 4.04 9.36 6.13 12.87 22.58 37.95 92.25 47.79 128.41 25.08-11.65 23.29-8.06 51.54 6.01 72.99-29.16-1.88-62.55 17.67-65.89 48.61-1.76 16.3 5.39 21.42 20.52 23.27 39.52 4.84 111.34 2.74 150.38-5.36 5.25-1.09 16.46-5.48 20.47-5.51 7.07-.07 17.79 4.36 25.44 4.08-.02 7.42 6.71 12.05 13.1 14.4 24.37 8.96 99.56 4.79 127.35 1.4 26.51-3.23 72.9-10.15 64.86-47.26l1.18-1.65c17.53-12.56 36.11-23.59 53.06-37 79.06-62.53 162-196.34 120.29-299.24zM384.87 194.15l-13.42 7.36c-4.66-6.32-10.01-12.67-18.77-10.66-5.82 1.33-8.89 9.11-4.43 13.51 2.36 2.32 9.24 2.06 10.72 6.26l-20.39 14.97c-37.57-40.95 24.22-86.35 46.29-31.44zm-78.06 422.82c-8.3 11.34-28.84 28.7-42.8 31.3-1.08.2-1.77.57-2.52-.59l-7.51-12.02c74.74-18.97 75.02-131.53-2.95-145.57-57.53-10.35-100.37 46.2-79.54 99.54 5.44 13.93 17.13 29.44 30.48 36.03-3.09 3.55-8.4 5.71-9.01 10.99-67.46-40.65-48.37-150.14 31.65-161.86 78.89-11.55 128.85 78.48 82.2 142.2zm357.6 152.6c-3.08 4.46-15.45 16.56-14.25 21.31.83 3.27 5.31 7.36 5.77 12.38.64 6.84-3.63 13.01-8.43 17.4-7.01 6.42-15.13 7.16-24.31 8.69-24.78 4.12-50.13 4.58-75.21 4.28 1.71-8.76 4.25-18.31 10.99-24.5-11.42-1.3-18.98 14.72-21.13 24.38l-19.87-.87c-2.68-2.72 5.39-25.88 12-26.02.29-1.65-2.53-1.14-3.51-1.01-10.45 1.45-18.58 16.31-19.5 26.03-7.56-1.97-12.44-1.63-11.76-11.2 1.05-14.72 12.86-23.76 25.81-28.27 19.97-6.96 44.71-5.77 64.95-.54.47-2.16-1.06-2.27-2.31-3.18-9.29-6.72-26.15-13.71-37.45-15.55-2.97-.48-9.27.5-10.74-1.26-11.96-30.99-.82-65.22 26.61-83.42 19.57-12.99 41.98-16.08 64.91-11.6-3.3-4.96-9.3-6.24-14.51-7.99-1.03-.35-1.87.75-1.51-1.51.15-.95 7.02-9.41 8.44-11.56 7.69-11.7 13.53-36.39 9.62-50.47-.38-1.37-.12-3.11-2.03-3.46-2.66 9.83-8.28 26.92-15.15 34.36-10.12 10.96-34.51 24.15-48.58 29.42-14.45 5.4-44.25 11.03-54.21 22.79-3.53 4.17-12.75 22.91-21.06 14.91-7.54-7.27 3.85-24.75 4.98-32.48-13.42 2.93-21.46 20.01-19 32.99-15.23-5.33-12.02-23.42-6.7-35.21.94-2.07 6.7-10.55 6.68-11.3-.04-1.55-1.67-1.08-2.73-.77-5.42 1.55-9.77 7.58-13.66 11.37l-7.58 12.91c-2.4-28.04 17.39-45.46 41-55.48 16.05-6.81 35.93-8.89 44.84-26.16 1.47-2.85 5.14-12.15 5.14-14.86v-18.5c-5.41 7.19-9.14 15.58-15.03 22.47-14.63 17.1-31.93 16.15-49.99 26.01-20.79 11.35-40.62 32.88-40.6 57.85 0 10.19 3.64 25.23 14.62 28.68.45 1.73-2.03.44-2.04 1.51-.04 2.44 11.34 12.8 13.71 14.32 6.93 4.44 10.49 1.89 16.63 3.18.35.07 3.66 3.84 5.39 4.79 9.04 5 17.53 3.98 25.88-1.82.15-5.98-3.47-8.36 3.43-12-1.01 3.4 2.87 5.77 2.92 8.47.04 2.3-2.84 8.26-3.46 11.48-2.85 14.87-2.12 31.63 2.54 46-10 3.4-20.4 8.36-26.69 17.06-37.02 3.33-92.68-7.4-116.12-38.69-26.12-34.86-34.04-84.14-30.16-126.82 1.27-13.99 11.91-72.88 19.92-81.83.91-1.01 2.53-.73 3.49-1.72 1.29-1.33 7.25-8.69 8.3-8.97 5.8-1.58 12.84.85 18.27-1.49-12.57-7.04-26.02-12.44-38.67-19.33-8.65-4.71-23.28-12.59-30.82-18.18-4.36-3.22-7.8-9.09-11.98-13.02-14.85-13.97-31.01-19.04-41.95-37.05-13.02-21.46-17.92-50.5-5.43-73.27 5.97-10.89 15.81-18.07 23.36-27.64 19.67-24.9 23.69-58.75 43.67-86.33 55.82-77.05 163.83-78.14 240.8-33.69 5.15-17.1 13.81-37.77 31.33-45.18 34.5-14.58 61.61 27.65 39.19 55.19-8.49 10.42-22.86 16.3-35.99 18.03-1.44.19-2.94-.93-2.52 1.45 18.11 22.51 31.09 52.45 37.31 80.7 1.54 6.98 2.08 18.93 4.5 24.5 2.9 6.67 13.33 16.15 17.82 23.18 4.84 7.58 9.21 17.14 10.36 26.13-4.94-2.67-10.16-5.34-15.99-4.99-.49.36 1 1.28 1 1.49v21c0 1.01-7.59 15.95-8.83 18.17-19.05 34.19-51.51 57.52-86.49 73.51-5.8 2.65-12.56 5.58-18.68 6.83-.26 2.58-.02 1.6 1.46 2.02l7.04 1.97h25.5l-5.99 1.99c16.8-.22 36.11 1.81 51.37 9.13 4.9 2.35 8.83 6.35 14.1 7.9 46.43 67.73 78.96 145.68 26.95 220.91zM339.98 532.64l7.98 3.48-4.97 8.51-3.01-11.99z" fill="#004b29"/><path d="M540.98 565.63c-5.41 7.19-9.14 15.58-15.03 22.47-14.63 17.1-31.93 16.15-49.99 26.01-20.79 11.35-40.62 32.88-40.6 57.85 0 10.19 3.64 25.23 14.62 28.68.45 1.73-2.03.44-2.04 1.51-.04 2.44 11.34 12.8 13.71 14.32 6.93 4.44 10.49 1.89 16.63 3.18.35.07 3.66 3.84 5.39 4.79 9.04 5 17.53 3.98 25.88-1.82.15-5.98-3.47-8.36 3.43-12-1.01 3.4 2.87 5.77 2.92 8.47.04 2.3-2.84 8.26-3.46 11.48-2.85 14.87-2.12 31.63 2.54 46-10 3.4-20.4 8.36-26.69 17.06-37.02 3.33-92.68-7.4-116.12-38.69-26.12-34.86-34.04-84.14-30.16-126.82 1.27-13.99 11.91-72.88 19.92-81.83.91-1.01 2.53-.73 3.49-1.72 1.29-1.33 7.25-8.69 8.3-8.97 5.8-1.58 12.84.85 18.27-1.49-12.57-7.04-26.02-12.44-38.67-19.33-8.65-4.71-23.28-12.59-30.82-18.18-4.36-3.22-7.8-9.09-11.98-13.02-14.85-13.97-31.01-19.04-41.95-37.05-13.02-21.46-17.92-50.5-5.43-73.27 5.97-10.89 15.81-18.07 23.36-27.64 19.67-24.9 23.69-58.75 43.67-86.33 55.82-77.05 163.83-78.14 240.8-33.69 5.15-17.1 13.81-37.77 31.33-45.18 34.5-14.58 61.61 27.65 39.19 55.19-8.49 10.42-22.86 16.3-35.99 18.03-1.44.19-2.94-.93-2.52 1.45 18.11 22.51 31.09 52.45 37.31 80.7 1.54 6.98 2.08 18.93 4.5 24.5 2.9 6.67 13.33 16.15 17.82 23.18 4.84 7.58 9.21 17.14 10.36 26.13-4.94-2.67-10.16-5.34-15.99-4.99-.49.36 1 1.28 1 1.49v21c0 1.01-7.59 15.95-8.83 18.17-19.05 34.19-51.51 57.52-86.49 73.51-5.8 2.65-12.56 5.58-18.68 6.83-.26 2.58-.02 1.6 1.46 2.02l7.04 1.97h25.5l-5.99 1.99c16.8-.22 36.11 1.81 51.37 9.13 4.9 2.35 8.83 6.35 14.1 7.9 46.43 67.73 78.96 145.68 26.95 220.91-3.08 4.46-15.45 16.56-14.25 21.31.83 3.27 5.31 7.36 5.77 12.38.64 6.84-3.63 13.01-8.43 17.4-7.01 6.42-15.13 7.16-24.31 8.69-24.78 4.12-50.13 4.58-75.21 4.28 1.71-8.76 4.25-18.31 10.99-24.5-11.42-1.3-18.98 14.72-21.13 24.38l-19.87-.87c-2.68-2.72 5.39-25.88 12-26.02.29-1.65-2.53-1.14-3.51-1.01-10.45 1.45-18.58 16.31-19.5 26.03-7.56-1.97-12.44-1.63-11.76-11.2 1.05-14.72 12.86-23.76 25.81-28.27 19.97-6.96 44.71-5.77 64.95-.54.47-2.16-1.06-2.27-2.31-3.18-9.29-6.72-26.15-13.71-37.45-15.55-2.97-.48-9.27.5-10.74-1.26-11.96-30.99-.82-65.22 26.61-83.42 19.57-12.99 41.98-16.08 64.91-11.6-3.3-4.96-9.3-6.24-14.51-7.99-1.03-.35-1.87.75-1.51-1.51.15-.95 7.02-9.41 8.44-11.56 7.69-11.7 13.53-36.39 9.62-50.47-.38-1.37-.12-3.11-2.03-3.46-2.66 9.83-8.28 26.92-15.15 34.36-10.12 10.96-34.51 24.15-48.58 29.42-14.45 5.4-44.25 11.03-54.21 22.79-3.53 4.17-12.75 22.91-21.06 14.91-7.54-7.27 3.85-24.75 4.98-32.48-13.42 2.93-21.46 20.01-19 32.99-15.23-5.33-12.02-23.42-6.7-35.21.94-2.07 6.7-10.55 6.68-11.3-.05-1.55-1.67-1.08-2.73-.77-5.42 1.55-9.77 7.58-13.66 11.37l-7.58 12.91c-2.4-28.04 17.39-45.46 41-55.48 16.05-6.81 35.93-8.89 44.84-26.16 1.47-2.85 5.14-12.15 5.14-14.86v-18.5zm85.65-347.35c5.39-5.35 0-13.58-6.21-14.59-11.05-1.79-20.38 6.37-25.62 15.27s-10.57 22.01 2.16 26.67c1.22-8.38 7.21-17.9 14.8-21.71 4.34-2.18 12-2.8 14.86-5.64zm-262.92 25.6c-9.81 1.55-25.09 12.63-27.29 22.7-3.69 16.89 11.1 2.22 16.23-.76 4.63-2.69 10.33-5.65 15.81-5.21 4.6.37 11.56 5.12 14.08-2.93 3.29-10.49-10.24-15.16-18.83-13.8zm139.51 19.53c2.06 1.85 12.66-.91 16.26-.84 13.65.26 29.78 9.52 38.21 19.92l3.29-.33c5.05-2.56-.04-13.26-2.19-16.85-9.37-15.69-36.09-27.57-52.17-15.53-3.44 2.58-6.96 10.44-3.4 13.62zm-122.6 35.58c-22.46-23.27-53.17-.88-59.18 25.61-3.76 16.58-4.36 43.95 15.53 50.02-13.87-13.65-14.37-39.69-5.52-56.01 13.34-24.59 46.23-24.9 49.51 6.02-29.97-25.52-53.55 22.14-33.96 45.47 8.24 9.82 16.07 6.24 26.97 3.53-7.9 24.83 14.32 42.86 34.55 51.99.72 10.39-2.94 16.71-12.56 20.49-15.96 6.28-29.78 1.04-39.82-12.16-2.4-3.16-7.27-14.1-8.66-15.34-3.19-2.84-4.97-.89-5.41 2.58-1.85 14.93 8.88 32.16 22.21 38.6 3.32 1.6 9.89 2.45 12.14 4.86 2.66 2.86 8.18 17.93 11.02 22.98 15 26.74 36.79 43.17 69.01 38.97 41.47-5.4 62.69-56.47 71.52-91.99l9.29 4.87c8.95-8.44-5.09-21.74-13.92-23.77-4.84-1.11-20.85.2-22.25 5.59-.35 4.83 7.45 4.83 10.88 5.32-13.22 26.2-47.04 34.07-73.26 23.75-11.19-4.4-18.05-11.55-19.74-23.75 33.44-3.16 71.25-47.72 25.26-66.77-19.49-8.07-43-6.93-61.25 3.76-.56-.65 2.86-5.52 3.47-7.02 6.39-15.6 6.49-44.85-5.84-57.63zm162.36 88.63c27.47-5.16 29.26-37.34 22.94-59.43-5.7-19.89-25-34.32-45.95-29.07-26.64 6.68-37.67 34.66-35.98 59.99 1.06 15.92 5.35 21.67 18.96 29.04 1.26.68 1.97 2.07 4.03 1.46-.5-1.61-2.64-1.89-4.05-3.44-19-20.95-14.86-66.18 14.5-75.6 38.06-12.21 54.31 41.4 34.97 66.97-2.75 3.64-6.9 6.22-9.41 10.08zm-11.24-61.72c-26.44.99-32.06 49.65-10.3 61.77 10.42 5.8 18.69 2.21 25.51-6.56 13.02-16.76 11.54-56.21-15.21-55.21zm-50.77 213.74c-10.36 3.31-22.58 8.44-33.52 8.97-7.27.35-14.38-1.78-21.48-2.49 16.91 16.46 42.75 13.69 54.99-6.49z" fill="#68cb3d"/><path d="M253.98,635.65c74.74-18.97,75.02-131.53-2.95-145.57-57.53-10.35-100.37,46.2-79.54,99.54,5.44,13.93,17.13,29.44,30.48,36.03-3.09,3.55-8.4,5.71-9.01,10.99-67.46-40.65-48.37-150.14,31.65-161.86,78.89-11.55,128.85,78.48,82.2,142.2-8.3,11.34-28.84,28.7-42.8,31.3-1.08.2-1.77.57-2.52-.59l-7.51-12.02Z" fill="#b1eb54"/><path d="M348.25,204.36c2.36,2.32,9.24,2.06,10.72,6.26l-20.39,14.97c-37.57-40.95,24.22-86.35,46.29-31.44l-13.42,7.36c-4.66-6.32-10.01-12.67-18.77-10.66-5.82,1.33-8.89,9.11-4.43,13.51Z" fill="#68cb3d"/><path d="M342.99 544.63l-3.01-11.99 7.97 3.49-4.96 8.5z" fill="#fff"/><path d="M380.62 298.99c12.33 12.78 12.23 42.03 5.84 57.63-.61 1.5-4.03 6.36-3.47 7.02 18.25-10.69 41.76-11.83 61.25-3.76 45.99 19.05 8.18 63.61-25.26 66.77 1.69 12.21 8.55 19.35 19.74 23.75 26.22 10.32 60.04 2.45 73.26-23.75-3.43-.49-11.22-.49-10.88-5.32 1.4-5.39 17.41-6.7 22.25-5.59 8.83 2.03 22.88 15.33 13.92 23.77l-9.29-4.87c-8.83 35.52-30.05 86.59-71.52 91.99-32.22 4.2-54.01-12.23-69.01-38.97-2.84-5.05-8.36-20.12-11.02-22.98-2.25-2.41-8.82-3.26-12.14-4.86-13.33-6.44-24.06-23.67-22.21-38.6.43-3.48 2.22-5.42 5.41-2.58 1.39 1.24 6.26 12.18 8.66 15.34 10.04 13.19 23.85 18.44 39.82 12.16 9.62-3.79 13.28-10.11 12.56-20.49-20.23-9.12-42.45-27.16-34.55-51.99-10.9 2.71-18.73 6.29-26.97-3.53-19.58-23.33 4-71 33.96-45.47-3.27-30.92-36.17-30.61-49.51-6.02-8.85 16.32-8.36 42.36 5.52 56.01-19.9-6.07-19.3-33.44-15.53-50.02 6.01-26.49 36.72-48.88 59.18-25.61zm-13.93 28.85c-7.47 2.22-4.91 17.37 4.56 14.63 7.71-2.23 5.24-17.54-4.56-14.63zm54.3 154.79l-8.51-24.97c-5.39 5.2-13.61 3.83-20.51 3.98.49 17.49 7.6 32.65 26.61 34.9 7.1.84 20.76.07 26.05-5.23 3.52-3.53 9.49-20.07 5.36-23.18-3.58-2.7-23.92-3.62-29.01-9.48.82 6.4 1.62 13.94 1.61 20.34 0 .82-.2 3.95-1.61 3.66zM531.74 325.9c26.76-1 28.24 38.45 15.21 55.21-6.82 8.77-15.09 12.36-25.51 6.56-21.76-12.11-16.14-60.78 10.3-61.77zm3.98 10.89c-8.2 1.47-7.57 16.03 1.61 15.55 10.07-.53 8-17.27-1.61-15.55zm7.26 50.83c2.51-3.86 6.66-6.44 9.41-10.08 19.34-25.56 3.1-79.18-34.97-66.97-29.36 9.42-33.5 54.65-14.5 75.6 1.4 1.55 3.55 1.83 4.05 3.44-2.06.61-2.77-.78-4.03-1.46-13.61-7.38-17.9-13.13-18.96-29.04-1.69-25.33 9.34-53.31 35.98-59.99 20.94-5.25 40.25 9.18 45.95 29.07 6.32 22.09 4.54 54.27-22.94 59.43zm-39.76-124.21c-3.55-3.19-.04-11.05 3.4-13.62 16.08-12.04 42.79-.16 52.17 15.53 2.14 3.58 7.24 14.28 2.19 16.85l-3.29.33c-8.43-10.41-24.56-19.66-38.21-19.92-3.61-.07-14.2 2.69-16.26.84zm123.41-45.13c-2.86 2.84-10.52 3.46-14.86 5.64-7.58 3.81-13.58 13.32-14.8 21.71-12.73-4.66-7.42-17.73-2.16-26.67s14.57-17.06 25.62-15.27c6.2 1.01 11.6 9.24 6.21 14.59zm-262.92 25.6c8.6-1.36 22.12 3.31 18.83 13.8-2.52 8.04-9.48 3.29-14.08 2.93-5.48-.44-11.18 2.52-15.81 5.21-5.13 2.98-19.92 17.66-16.23.76 2.2-10.07 17.48-21.15 27.29-22.7zm117.26 295.76c-12.25 20.17-38.08 22.95-54.99 6.49 7.1.71 14.21 2.84 21.48 2.49 10.93-.53 23.15-5.67 33.52-8.97z" fill="#004b29"/><path d="M420.99 482.63c1.41.29 1.61-2.83 1.61-3.66 0-6.4-.79-13.93-1.61-20.34 5.09 5.86 25.43 6.78 29.01 9.48 4.13 3.12-1.84 19.66-5.36 23.18-5.3 5.31-18.95 6.07-26.05 5.23-19.01-2.25-26.13-17.4-26.61-34.9 6.9-.14 15.11 1.22 20.51-3.98l8.51 24.97zm-54.3-154.79c9.8-2.91 12.27 12.4 4.56 14.63-9.47 2.74-12.03-12.41-4.56-14.63zm169.03 8.95c9.61-1.73 11.67 15.01 1.61 15.55-9.18.49-9.8-14.07-1.61-15.55z" fill="#fff"/><path d="M329.17 713s14.09 79.83 94.43 104.87c-49.04 9.39-115.83 5.74-115.83 5.74s-6.78-19.3 19.83-25.57c-21.91-5.22-32.87 8.18-34.96 26.26-15.65-1.22-20.35 0-20.35 0s6.26-54.96 88.17-33.57c-29.74-39.65-33.52-57.39-31.3-77.74z" fill="#68cb3d"/><g fill="#5daa3a"><path d="M843.9 520.42c-12.11 6.13-26.3 14.08-41.58 24.14-4.2 2.77-8.57 5.75-13.06 8.97-7.89-16.37-16.41-31.17-24.38-43.76l-6.83-10.49c17.93-15.3 36.84-26.34 56.68-33.05 5.04-1.71 9.96-3.06 14.74-4.12 8 11.11 13.22 25.27 14.14 42.12.3 5.44.39 10.84.29 16.19zm-21.72-66.86c-3.4.89-6.86 1.92-10.38 3.1-20.85 7.02-40.68 18.49-59.43 34.32-10.99-15.74-21.1-28.34-28.38-36.92 30.37-28 72.83-25.69 98.19-.5zm-77.35 44.1c-13.2 12.16-25.83 26.57-37.87 43.17-5.67-7.59-11.07-14.32-15.98-20.13 4.55-25.79 13.97-45.4 26-59.4 7.23 8.56 17.17 21.02 27.85 36.36zm36.23 61.89c-12.86 9.68-26.51 21.13-40.15 34.51-5.27-9.83-10.62-18.81-15.76-26.88-4.04-6.33-8.07-12.28-12.01-17.84 11.9-16.73 24.37-31.18 37.37-43.33l5.92 9.11c8.06 12.74 16.7 27.78 24.63 44.43zm33.84 67.58l.27 1.35 1.06-2.08-1.33.73z"/><path d="M843.37 531.98c-2.37 33.22-12.18 64.72-27.14 94.41h0l-1.33.74c-4.7-22.79-12.45-44.58-21.34-64.37 4.82-3.49 9.49-6.7 13.97-9.66 12.89-8.5 25.07-15.49 35.84-21.12zm-37.59 100.49h0c-11.24 6.9-23.6 15.63-37.04 26.69-6.59-20.51-14.61-39.22-22.99-55.82 13.4-13.36 26.87-24.81 39.58-34.49 8.69 19.63 16.15 41.18 20.45 63.62zm1.03 11.26c-8.86 15.21-19.02 29.9-30.15 44.08-1.43-6.2-3.02-12.26-4.73-18.19h0c12.8-10.74 24.45-19.21 34.88-25.89zm-38.2 54.04c-17.89 21.55-37.91 41.84-58.83 60.81 6.21-11.65 9.56-25.11 10.87-39.37 15.38-16.78 29.7-30.76 42.91-42.41 1.87 6.81 3.57 13.81 5.05 20.97zm-8.16-31.63h0c-12.22 10.59-25.28 23.03-39.14 37.67-.05-21.02-3.69-42.98-8.54-62.93 8.28-10.83 16.88-20.81 25.58-29.97 8.14 16.47 15.86 34.99 22.1 55.23zm-59.57-116.67l-12.43 19.36-.19-.43c-.54-12.31-.21-23.7.86-34.19 3.75 4.63 7.7 9.73 11.76 15.26zm32.66 52.01c-8.09 8.38-16.13 17.44-23.94 27.22-5.6-20.28-12-37.59-16.32-48.39 4.51-7.76 9.11-15.15 13.81-22.18 3.18 4.56 6.41 9.38 9.63 14.43 5.49 8.6 11.2 18.27 16.82 28.92z"/><path d="M843.9 520.42c-.07 3.88-.25 7.73-.53 11.56l.53-11.56zm-36.41 122.15l.09.67-.77.49.68-1.16zm8.74-16.17l-1.06 2.08-.27-1.35 1.33-.73z"/></g><path d="M235.74 609.61c-2 0-3.65-.67-4.95-2s-1.95-3-1.95-5v-4.9c-3.73-.33-6.98-.92-9.75-1.75s-5.05-1.68-6.85-2.55c-1.73-.8-2.95-1.92-3.65-3.35s-.97-2.93-.8-4.5.72-2.98 1.65-4.25 2.15-2.12 3.65-2.55 3.25-.22 5.25.65c1.33.67 3.33 1.4 6 2.2s6.03 1.2 10.1 1.2 7.03-.58 8.7-1.75 2.5-2.55 2.5-4.15c0-1.4-.57-2.58-1.7-3.55s-3.2-1.78-6.2-2.45l-11.3-2.4c-12.27-2.73-18.4-9.37-18.4-19.9 0-5.6 1.88-10.35 5.65-14.25s8.82-6.45 15.15-7.65v-5.4c0-2 .65-3.67 1.95-5s2.95-2 4.95-2 3.67.67 5 2 2 3 2 5v5c2.2.33 4.45.83 6.75 1.5s4.35 1.57 6.15 2.7c1.93 1.07 3.15 2.52 3.65 4.35s.42 3.6-.25 5.3-1.85 2.93-3.55 3.7-3.85.62-6.45-.45c-1.6-.67-3.33-1.22-5.2-1.65s-4.27-.65-7.2-.65c-3.53 0-6.25.63-8.15 1.9s-2.85 2.9-2.85 4.9c0 1.33.55 2.45 1.65 3.35s3.12 1.68 6.05 2.35l11.4 2.5c12.4 2.8 18.6 9.3 18.6 19.5 0 5.67-1.9 10.4-5.7 14.2s-8.77 6.27-14.9 7.4v5.4c0 2-.67 3.67-2 5s-3 2-5 2z" fill="#fff7ab"/><path d="M324.8 627.71s-5.09 33.26-1.96 53.61c-38.35 17.22-66.52 21.52-101.74 0s-19.96-40.7-2.35-36c-3.52 18-.39 27.39 7.83 26.61s-9.39-12.52 1.96-20.35 10.57 7.04 23.09 15.26 25.04 7.04 19.96.78c19.57-3.13 53.22-39.91 53.22-39.91z" fill="#68cb3d"/></svg>