<?xml version="1.0" encoding="UTF-8" standalone="no"?><svg width="600" height="400" fill="none" xmlns="http://www.w3.org/2000/svg" viewBox="0 0 100 100"><rect width="100" height="100" rx="16" fill="#fff"/><g fill="#5daa3a" stroke="#402318" stroke-width="2"><rect x="11" y="39.0083" width="14.849" height="41.1756" rx="3.21226"/><rect x="55.2285" y="39.0083" width="14.849" height="41.1756" rx="3.21226"/></g><circle cx="69.4979" cy="51.1716" r="12.1102" fill="#fff"/><g stroke="#402318"><path d="M69.959 37.5083c7.7791 0 14.1892 6.4104 14.1894 14.1895 0 3.1719-.9873 6.1083-2.7929 8.4511l8.5049 8.5059c.8313.8317.8677 2.1263.0126 2.9297-.3831.4589-.9297.622-1.4199.622-.5677 0-1.0987-.168-1.5381-.6074l-8.5088-8.5088c-2.3969 1.8058-5.3309 2.7979-8.4472 2.7979-7.7808 0-14.124-6.347-14.124-14.1904.0002-7.7744 6.2744-14.1895 14.124-14.1895zm.0654 4.1592c-5.5792.0002-10.0301 4.5128-10.0303 10.0303 0 5.5814 4.449 10.031 10.0303 10.0312 5.5178 0 10.0313-4.4518 10.0313-10.0312-.0002-5.5156-4.5157-10.0303-10.0313-10.0303z" fill="#402318"/><rect x="33.1143" y="19.0001" width="14.849" height="61.1839" rx="3.21226" fill="#5daa3a" stroke-width="2"/></g></svg>