<?xml version="1.0" encoding="UTF-8" standalone="no"?><svg width="600" height="400" fill="none" viewBox="0 0 100 100" xmlns="http://www.w3.org/2000/svg" xmlns:xlink="http://www.w3.org/1999/xlink"><style xmlns="http://www.w3.org/1999/xhtml"><![CDATA[.B{stroke-linecap:round}.C{stroke-width:2.02446}.D{stroke-linejoin:round}]]></style><rect width="100" height="100" rx="16" fill="#fff"/><g clip-path="url(#A)"><path d="M73.5782 21.4888v-2.3551H28.1898v44.2075H18v6.0936c0 5.3648 4.3593 9.7242 9.7242 9.7242h3.6507v9.6162h46.4952V21.4888h-4.2919z" fill="#f29b30"/><use href="#B" fill="#64c753"/><path d="M35.6067 18.587v44.2075H34.5v15.7841l.6411.0337H71.271c5.3716 0 9.7241-4.3526 9.7241-9.7241V18.587H35.6067z" fill="#51a143"/><use href="#B" stroke="#402318" class="C D"/><g fill="#64c753"><use href="#C"/><path d="M43.0766 39.4728h-4.5483v4.5483h4.5483v-4.5483z"/><use href="#D"/></g><path d="M66.9722 75.11H30.8423c-5.3648 0-9.7241-4.3526-9.7241-9.7241v-6.0937h36.1366v6.0937c0 2.6858 1.0932 5.1084 2.8478 6.8764 1.7545 1.7545 4.1906 2.8477 6.8696 2.8477z" fill="#d6e9ff"/><path d="M76.6962 15.0916v50.2943c0 5.3649-4.3526 9.7242-9.7242 9.7242-2.6791 0-5.1152-1.0932-6.8697-2.8477-1.7545-1.7613-2.8477-4.1907-2.8477-6.8765v-6.0936H31.3145V15.0916h45.3817zM43.0766 54.0692v-4.5483h-4.5483v4.5483h4.5483zm0-10.0548v-4.5483h-4.5483v4.5483h4.5483zm0-10.0481V29.418h-4.5483v4.5483h4.5483z" fill="#fff"/><g stroke="#402318" class="C D"><path d="M31.3147 59.2991V15.0916h45.3817v50.2943c0 5.3649-4.3526 9.7242-9.7242 9.7242m0 0c-2.679 0-5.1151-1.0932-6.8696-2.8477-1.7546-1.7613-2.8478-4.1907-2.8478-6.8765v-6.0936H21.1182v6.0936c0 5.3649 4.3593 9.7242 9.7241 9.7242h36.1299z" class="B"/><use href="#D"/><path d="M47.9355 31.6921H67.3839" class="B"/><path d="M43.0766 39.4728h-4.5483v4.5483h4.5483v-4.5483z"/><path d="M47.9355 41.7469H67.3839" class="B"/><use href="#C"/><g class="B"><path d="M47.9355 51.8018h19.4484M40.627 23.9115h26.7566"/><use href="#E"/><path d="M46.9365 12.2371v5.2096m7.0655-5.2096v5.2096m7.0722-5.2096v5.2096m7.0645-5.2096v5.2096"/></g></g></g><defs><clipPath id="A"><path fill="#fff" transform="translate(18 11.2249)" d="M0 0h64v77.550399780273H0z"/></clipPath><path id="B" d="M80.9951 17.4467H34.5V84.733H80.9951V17.4467Z"/><path id="C" d="M43.0766 49.5277h-4.5483v4.5483h4.5483v-4.5483z"/><path id="D" d="M43.0766 29.418h-4.5483v4.5483h4.5483V29.418z"/><path id="E" d="M39.8711 12.2371v5.2096"/></defs></svg>